<svg width="714" height="806" viewBox="0 0 714 806" fill="none" xmlns="http://www.w3.org/2000/svg">
<path d="M667.345 317.011C684.506 357.406 694 401.844 694 448.499C694 634.367 543.324 785.043 357.456 785.043C171.589 785.043 20.9128 634.367 20.9128 448.499C20.9128 279.322 145.743 139.3 308.32 115.517C328.176 82.5787 370.523 17.5801 381.064 21.0938C394.24 25.4859 401.092 91.4495 420.867 95.7596C452.984 102.759 526.826 123.21 555.649 130.896C575.322 115.158 618.291 86.2617 632.785 96.5831C652.275 257.992 541.43 467.412 378.044 356.951" stroke="white" stroke-width="40"/>
<path d="M375.026 210.368C380.699 218.603 400.665 232.603 435.143 222.72" stroke="white" stroke-width="10"/>
<path d="M504.868 239.189C510.907 249.895 535.173 264.444 569.651 254.562" stroke="white" stroke-width="10"/>
<path d="M425.258 300.509C425.258 315.779 478.513 329.23 488.121 319.347" stroke="white" stroke-width="10"/>
<path d="M451.208 316.437C453.258 312.943 459.023 308.035 457.101 282.841" stroke="white" stroke-width="10"/>
</svg>
