<svg width="230" height="180" viewBox="0 0 230 180" fill="none" xmlns="http://www.w3.org/2000/svg">
<rect x="220" y="30" width="10" height="60" fill="#353535"/>
<rect x="200" y="100" width="10" height="40" fill="#353535"/>
<rect x="190" y="10" width="10" height="10" fill="#353535"/>
<rect x="180" y="20" width="10" height="10" fill="#353535"/>
<rect x="180" y="30" width="10" height="10" fill="#353535"/>
<rect x="190" y="40" width="10" height="10" fill="#353535"/>
<rect x="120" y="30" width="10" height="20" fill="#353535"/>
<rect x="110" y="10" width="10" height="20" fill="#353535"/>
<rect x="19.9995" y="10" width="10" height="20" fill="#353535"/>
<rect x="9.99976" y="30" width="10" height="20" fill="#353535"/>
<rect x="190" y="80.0001" width="10" height="20" fill="#353535"/>
<rect x="200" y="50.0001" width="10" height="20" fill="#353535"/>
<rect x="210" y="70.0001" width="10" height="30" transform="rotate(90 210 70.0001)" fill="#353535"/>
<rect x="170" y="50.0001" width="10" height="40" transform="rotate(90 170 50.0001)" fill="#353535"/>
<rect x="190" y="140" width="10" height="10" fill="#353535"/>
<rect x="170" y="60" width="10" height="10" fill="#353535"/>
<rect x="100" width="10" height="10" fill="#353535"/>
<rect x="90.0002" y="10" width="10" height="10" fill="#353535"/>
<rect x="40.0002" y="10" width="10" height="10" fill="#353535"/>
<rect x="29.9998" y="60" width="10" height="10" fill="#353535"/>
<rect x="59.9998" y="80" width="10" height="10" fill="#353535"/>
<rect x="50" y="80" width="10" height="10" fill="#353535"/>
<rect x="70.0002" y="80" width="10" height="10" fill="#353535"/>
<rect x="90.0002" y="60" width="10" height="10" fill="#353535"/>
<rect x="29.9998" width="10" height="10" fill="#353535"/>
<rect x="50" y="20" width="40" height="10" fill="#353535"/>
<rect x="180" y="150" width="10" height="10" fill="#353535"/>
<rect x="29.9998" y="160" width="10" height="10" fill="#353535"/>
<rect x="19.9995" y="150" width="10" height="10" fill="#353535"/>
<rect x="19.9995" y="140" width="10" height="10" fill="#FF98F5"/>
<rect x="29.9998" y="150" width="10" height="10" fill="#FF98F5"/>
<rect x="10" y="100" width="10" height="10" fill="#FF98F5"/>
<rect x="79.9998" y="150" width="10" height="10" fill="#FF98F5"/>
<rect x="120" y="150" width="10" height="10" fill="#FF98F5"/>
<rect x="170" y="150" width="10" height="10" fill="#FF98F5"/>
<rect x="180" y="140" width="10" height="10" fill="#FF98F5"/>
<rect x="190" y="130" width="10" height="10" fill="#FF98F5"/>
<rect x="210" y="70.0001" width="10" height="10" fill="#FF98F5"/>
<rect x="210" y="50.0001" width="10" height="10" fill="#FF98F5"/>
<rect x="120" y="50.0001" width="10" height="10" fill="#FF98F5"/>
<rect x="100" y="70.0001" width="10" height="10" fill="#FF98F5"/>
<rect x="19.9995" y="70.0001" width="10" height="10" fill="#FF98F5"/>
<rect x="110" y="30" width="10" height="10" fill="#FF98F5"/>
<rect x="90.0002" y="20" width="10" height="10" fill="#FF98F5"/>
<rect x="79.9998" y="30" width="10" height="10" fill="#FF98F5"/>
<rect x="40.0002" y="20" width="10" height="10" fill="#FF98F5"/>
<rect x="30" y="10" width="10" height="10" fill="#FF98F5"/>
<rect x="100" y="10" width="10" height="10" fill="#FF98F5"/>
<rect x="19.9995" y="30" width="10" height="10" fill="#FF98F5"/>
<rect x="9.99976" y="50.0001" width="10" height="10" fill="#FF98F5"/>
<rect x="150" y="60" width="10" height="20" fill="#FF98F5"/>
<rect x="130" y="60" width="10" height="20" fill="#FF98F5"/>
<rect x="50" y="150" width="20" height="10" fill="#FF98F5"/>
<rect x="50" y="30" width="20" height="10" fill="#FF98F5"/>
<rect x="140" y="150" width="20" height="10" fill="#FF98F5"/>
<rect x="9.99976" y="140" width="10" height="10" fill="#353535"/>
<rect x="19.9998" y="110" width="10" height="30" fill="#FF98F5"/>
<rect y="50.0001" width="10" height="60" fill="#353535"/>
<rect x="10" y="110" width="10" height="30" fill="#353535"/>
<rect x="160" y="170" width="10" height="10" fill="#353535"/>
<rect x="210" y="90" width="10" height="10" fill="#353535"/>
<rect x="170" y="160" width="10" height="20" fill="#353535"/>
<rect x="160" y="160" width="10" height="20" transform="rotate(90 160 160)" fill="#353535"/>
<rect x="140" y="170" width="10" height="20" transform="rotate(90 140 170)" fill="#353535"/>
<rect x="90.0002" y="170" width="10" height="20" transform="rotate(90 90.0002 170)" fill="#353535"/>
<rect x="50" y="170" width="10" height="20" transform="rotate(90 50 170)" fill="#353535"/>
<rect x="70.0002" y="160" width="10" height="20" transform="rotate(90 70.0002 160)" fill="#353535"/>
<rect x="130" y="160" width="10" height="50" transform="rotate(90 130 160)" fill="#353535"/>
<rect x="200" y="20" width="20" height="10" fill="#353535"/>
</svg>
