<svg width="410" height="410" viewBox="0 0 410 410" fill="none" xmlns="http://www.w3.org/2000/svg">
<rect width="410" height="410" fill="#EB00FF"/>
<path fill-rule="evenodd" clip-rule="evenodd" d="M204.48 70.3701C199.091 77.9131 193.205 87.2739 189.432 93.5982L187.547 96.7586L183.934 97.2928C124.869 106.025 79.5147 157.446 79.5147 219.56C79.5147 287.808 134.262 343.134 201.797 343.134C269.331 343.134 324.079 287.808 324.079 219.56C324.079 202.414 320.628 186.103 314.397 171.281L328.619 165.175C335.647 181.893 339.531 200.278 339.531 219.56C339.531 296.432 277.865 358.75 201.797 358.75C125.728 358.75 64.0625 296.432 64.0625 219.56C64.0625 150.858 113.308 93.7936 178.075 82.4272C181.908 76.1417 187.075 68.0551 191.951 61.2298C194.789 57.2577 197.688 53.4849 200.264 50.723C201.52 49.3762 202.968 47.9752 204.499 46.9194C205.263 46.392 206.328 45.7539 207.622 45.328C208.899 44.9078 211 44.5035 213.36 45.2984C216.49 46.3527 218.299 48.7535 219.156 50.0529C220.151 51.5626 220.929 53.2715 221.545 54.7957C222.504 57.169 223.446 60.086 224.31 62.7629C224.54 63.4749 224.764 64.17 224.982 64.8333C226.116 68.2876 227.147 71.1453 228.212 73.1793C228.525 73.7766 228.783 74.1876 228.972 74.4567C239.293 76.7981 258.611 82.0857 271.549 85.6275C273.405 86.1353 275.129 86.6073 276.676 87.0295C280.544 84.1265 285.506 80.7574 290.411 78.149C293.563 76.4725 297.059 74.9101 300.435 74.1056C303.437 73.3899 308.409 72.7713 312.639 75.8157L315.419 77.816L315.828 81.2396C319.803 114.511 310.611 152.833 291.543 177.594C281.929 190.079 269.409 199.596 254.33 202.648C239.112 205.727 222.526 201.974 205.423 190.289L214.077 177.352C228.533 187.228 240.968 189.426 251.295 187.336C261.761 185.218 271.31 178.443 279.349 168.003C294.296 148.593 302.646 118.193 301.11 90.2866C300.065 90.7246 298.891 91.2848 297.607 91.9676C292.378 94.7489 286.746 98.7902 283.186 101.668L280.139 104.131L276.369 103.115C273.952 102.464 270.774 101.594 267.15 100.602C253.74 96.9326 234.232 91.5939 224.647 89.4828C221.689 88.8313 219.514 87.1337 218.036 85.5559C216.562 83.9816 215.432 82.1584 214.554 80.4825C212.815 77.1614 211.434 73.1585 210.316 69.7503C210.027 68.8716 209.756 68.0332 209.498 67.2339C209.215 66.3595 208.947 65.532 208.689 64.7498C207.404 66.3645 205.986 68.2615 204.48 70.3701ZM213.21 59.8169C213.233 59.8015 213.23 59.8045 213.205 59.8208C213.206 59.8195 213.208 59.8182 213.21 59.8169ZM206.298 58.7142C206.201 58.5951 206.203 58.5702 206.295 58.7095C206.296 58.7111 206.297 58.7126 206.298 58.7142ZM305.12 89.1332C305.118 89.1349 305.09 89.1357 305.039 89.1304C305.095 89.1288 305.121 89.1315 305.12 89.1332ZM229.288 74.8514C229.288 74.8516 229.285 74.8487 229.278 74.8424C229.285 74.8481 229.288 74.8513 229.288 74.8514Z" fill="white"/>
<path fill-rule="evenodd" clip-rule="evenodd" d="M230.625 132.582C219.983 138.239 213.46 130.33 211.406 124.801L213.818 121.719C215.088 125.137 220.262 132.439 229.818 127.359L230.625 132.582Z" fill="white"/>
<path fill-rule="evenodd" clip-rule="evenodd" d="M260.968 146.482C255.553 145.5 251.569 143.795 249.844 142.143L253.8 140.938C254.818 141.912 257.717 143.304 262.415 144.157C267.026 144.994 273.226 145.277 280.623 144.132L281.875 146.49C273.611 147.769 266.469 147.48 260.968 146.482Z" fill="white"/>
<path fill-rule="evenodd" clip-rule="evenodd" d="M227.889 164.231C227.112 163.277 226.506 162.077 226.506 160.703L230.297 160.996C230.297 161.101 230.336 161.356 230.701 161.805C231.074 162.262 231.69 162.793 232.575 163.353C234.342 164.471 236.837 165.492 239.538 166.243C242.228 166.991 244.995 167.436 247.264 167.475C248.4 167.495 249.357 167.412 250.094 167.242C250.86 167.065 251.226 166.832 251.366 166.688L254.128 169.602C253.338 170.415 252.246 170.856 251.171 171.104C250.069 171.359 248.804 171.45 247.483 171.427C244.838 171.382 241.751 170.873 238.82 170.058C235.9 169.246 233.006 168.094 230.789 166.692C229.683 165.992 228.659 165.175 227.889 164.231Z" fill="white"/>
<path fill-rule="evenodd" clip-rule="evenodd" d="M240.306 167.703C240.223 167.824 240.158 167.919 240.118 167.987L236.784 166.051C236.942 165.783 237.093 165.559 237.24 165.341C237.623 164.774 237.974 164.254 238.317 163.121C238.787 161.567 239.165 158.914 238.803 154.175L242.664 153.841C243.046 158.858 242.68 162.034 242.021 164.209C241.483 165.987 240.694 167.137 240.306 167.703Z" fill="white"/>
</svg>
